<svg width="174" height="104" viewBox="0 0 174 104" fill="none" xmlns="http://www.w3.org/2000/svg">
<rect width="165" height="91" rx="10" fill="#B9D4F1"/>
<rect x="6" y="7" width="168" height="94" rx="10" fill="#E2EDFA"/>
<path d="M118.53 34.0667L109.933 83.5298L60.4701 74.9333L69.0666 25.4702L118.53 34.0667Z" fill="url(#paint0_linear_67_41)"/>
<path d="M89.5 22L122 54.5L89.5 87L57 54.5L89.5 22Z" fill="url(#paint1_linear_67_41)"/>
<path d="M80.696 59.081C80.4631 59.081 80.2628 58.9986 80.0952 58.8338C79.9276 58.6662 79.8438 58.4645 79.8438 58.2287C79.8438 57.9957 79.9276 57.7969 80.0952 57.6321C80.2628 57.4645 80.4631 57.3807 80.696 57.3807C80.929 57.3807 81.1293 57.4645 81.2969 57.6321C81.4645 57.7969 81.5483 57.9957 81.5483 58.2287C81.5483 58.3849 81.5085 58.5284 81.429 58.6591C81.3523 58.7869 81.25 58.8892 81.1222 58.9659C80.9943 59.0426 80.8523 59.081 80.696 59.081ZM87.1998 54.0526L86.045 54.2571C85.9967 54.1094 85.92 53.9687 85.8149 53.8352C85.7126 53.7017 85.5734 53.5923 85.3972 53.5071C85.2211 53.4219 85.0009 53.3793 84.7367 53.3793C84.3759 53.3793 84.0748 53.4602 83.8333 53.6222C83.5918 53.7812 83.4711 53.9872 83.4711 54.2401C83.4711 54.4588 83.5521 54.6349 83.714 54.7685C83.8759 54.902 84.1373 55.0114 84.4981 55.0966L85.5379 55.3352C86.1401 55.4744 86.589 55.6889 86.8845 55.9787C87.1799 56.2685 87.3276 56.6449 87.3276 57.108C87.3276 57.5 87.214 57.8494 86.9867 58.1562C86.7623 58.4602 86.4484 58.6989 86.045 58.8722C85.6444 59.0455 85.1799 59.1321 84.6515 59.1321C83.9186 59.1321 83.3205 58.9759 82.8575 58.6634C82.3944 58.348 82.1103 57.9006 82.0052 57.321L83.2367 57.1335C83.3134 57.4545 83.4711 57.6974 83.7097 57.8622C83.9484 58.0241 84.2595 58.1051 84.643 58.1051C85.0606 58.1051 85.3944 58.0185 85.6444 57.8452C85.8944 57.669 86.0194 57.4545 86.0194 57.2017C86.0194 56.9972 85.9427 56.8253 85.7893 56.6861C85.6387 56.5469 85.4072 56.4418 85.0947 56.3707L83.9867 56.1278C83.3759 55.9886 82.9242 55.767 82.6316 55.4631C82.3418 55.1591 82.197 54.7741 82.197 54.3082C82.197 53.9219 82.3049 53.5838 82.5208 53.294C82.7367 53.0043 83.035 52.7784 83.4157 52.6165C83.7964 52.4517 84.2325 52.3693 84.7239 52.3693C85.4313 52.3693 85.9882 52.5227 86.3944 52.8295C86.8007 53.1335 87.0691 53.5412 87.1998 54.0526ZM92.6734 54.0526L91.5186 54.2571C91.4703 54.1094 91.3936 53.9687 91.2885 53.8352C91.1862 53.7017 91.047 53.5923 90.8708 53.5071C90.6947 53.4219 90.4745 53.3793 90.2103 53.3793C89.8495 53.3793 89.5484 53.4602 89.3069 53.6222C89.0654 53.7812 88.9447 53.9872 88.9447 54.2401C88.9447 54.4588 89.0257 54.6349 89.1876 54.7685C89.3495 54.902 89.6109 55.0114 89.9717 55.0966L91.0115 55.3352C91.6137 55.4744 92.0626 55.6889 92.3581 55.9787C92.6535 56.2685 92.8012 56.6449 92.8012 57.108C92.8012 57.5 92.6876 57.8494 92.4603 58.1562C92.2359 58.4602 91.922 58.6989 91.5186 58.8722C91.118 59.0455 90.6535 59.1321 90.1251 59.1321C89.3921 59.1321 88.7941 58.9759 88.3311 58.6634C87.868 58.348 87.5839 57.9006 87.4788 57.321L88.7103 57.1335C88.787 57.4545 88.9447 57.6974 89.1833 57.8622C89.422 58.0241 89.7331 58.1051 90.1166 58.1051C90.5342 58.1051 90.868 58.0185 91.118 57.8452C91.368 57.669 91.493 57.4545 91.493 57.2017C91.493 56.9972 91.4163 56.8253 91.2629 56.6861C91.1123 56.5469 90.8808 56.4418 90.5683 56.3707L89.4603 56.1278C88.8495 55.9886 88.3978 55.767 88.1052 55.4631C87.8154 55.1591 87.6706 54.7741 87.6706 54.3082C87.6706 53.9219 87.7785 53.5838 87.9944 53.294C88.2103 53.0043 88.5086 52.7784 88.8893 52.6165C89.27 52.4517 89.7061 52.3693 90.1975 52.3693C90.9049 52.3693 91.4617 52.5227 91.868 52.8295C92.2742 53.1335 92.5427 53.5412 92.6734 54.0526ZM95.6924 59.1278C95.164 59.1278 94.6924 58.9929 94.2777 58.723C93.8657 58.4503 93.5419 58.0625 93.3061 57.5597C93.0731 57.054 92.9566 56.4474 92.9566 55.7401C92.9566 55.0327 93.0745 54.4276 93.3103 53.9247C93.549 53.4219 93.8757 53.0369 94.2905 52.7699C94.7052 52.5028 95.1754 52.3693 95.701 52.3693C96.1072 52.3693 96.4339 52.4375 96.6811 52.5739C96.9311 52.7074 97.1243 52.8636 97.2606 53.0426C97.3998 53.2216 97.5078 53.3793 97.5845 53.5156H97.6612V50.2727H98.9353V59H97.691V57.9815H97.5845C97.5078 58.1207 97.397 58.2798 97.2521 58.4588C97.1101 58.6378 96.914 58.794 96.664 58.9276C96.414 59.0611 96.0902 59.1278 95.6924 59.1278ZM95.9737 58.0412C96.3402 58.0412 96.6498 57.9446 96.9027 57.7514C97.1584 57.5554 97.3515 57.2841 97.4822 56.9375C97.6157 56.5909 97.6825 56.1875 97.6825 55.7273C97.6825 55.2727 97.6172 54.875 97.4865 54.5341C97.3558 54.1932 97.164 53.9276 96.9112 53.7372C96.6584 53.5469 96.3459 53.4517 95.9737 53.4517C95.5902 53.4517 95.2706 53.5511 95.0149 53.75C94.7592 53.9489 94.566 54.2202 94.4353 54.5639C94.3075 54.9077 94.2436 55.2955 94.2436 55.7273C94.2436 56.1648 94.3089 56.5582 94.4396 56.9077C94.5703 57.2571 94.7635 57.5341 95.0191 57.7386C95.2777 57.9403 95.5959 58.0412 95.9737 58.0412Z" fill="white"/>
<defs>
<linearGradient id="paint0_linear_67_41" x1="118.53" y1="34.0667" x2="60.4701" y2="74.9333" gradientUnits="userSpaceOnUse">
<stop stop-color="white"/>
<stop offset="1" stop-color="#B9D4F1"/>
</linearGradient>
<linearGradient id="paint1_linear_67_41" x1="89.5" y1="22" x2="89.5" y2="87" gradientUnits="userSpaceOnUse">
<stop stop-color="#88ADD4"/>
<stop offset="1" stop-color="#B9D4F1"/>
</linearGradient>
</defs>
</svg>

